<svg xmlns="http://www.w3.org/2000/svg" xmlns:xlink="http://www.w3.org/1999/xlink" version="1.1" x="0px" y="0px"
    viewBox="0 0 100 125" style="enable-background:new 0 0 100 100;" xml:space="preserve">
    <path
        d="M62.6,39.8c-1,0-1.9,0.1-2.9,0.4c1-1.7,1.7-3.5,1.8-5.5c0-0.4,0.1-0.7,0.1-1.1c0-6.7-5.2-12.1-11.6-12.1  s-11.6,5.4-11.6,12.1c0,0.5,0,1,0.1,1.5c0.2,1.8,0.8,3.6,1.8,5.1c-0.9-0.2-1.9-0.4-2.9-0.4c-6.4,0-11.6,5.4-11.6,12.1  c0,6.7,5.2,12.1,11.6,12.1c0.5,0,1,0,1.5-0.1c3.8-0.5,7-2.9,8.7-6.3c-0.1,7-2.7,13.7-7.2,18.9c-0.1,0.1-0.2,0.4-0.1,0.5  c0.1,0.2,0.3,0.3,0.5,0.3h18.6c0.2,0,0.4-0.1,0.5-0.3c0.1-0.2,0-0.4-0.1-0.5c-4.6-5.2-7.2-11.8-7.5-18.9c1.9,3.7,5.6,6.1,9.7,6.3  l0.2,0c0.1,0,0.2,0,0.3,0c6.4,0,11.6-5.4,11.6-12.1C74.2,45.2,69,39.8,62.6,39.8z" />

</svg>