<svg xmlns="http://www.w3.org/2000/svg" data-name="Layer 1" viewBox="90 25 500 500" x="0" y="0" height="120">
    <rect height="432" width="300" fill="white" x="109" y="40" />
    <path fill="#f00606"
        d="M262.652,156.861a8,8,0,0,0-13.3,0l-63.266,94.7a8,8,0,0,0,0,8.888l63.266,94.7a8,8,0,0,0,13.3,0l63.266-94.695a8,8,0,0,0,0-8.888ZM256,336.293,202.355,256,256,175.707,309.645,256Z" />
    <path fill="#f41b1b"
        d="M419,74.658A50.658,50.658,0,0,0,368.342,24H142.658A50.658,50.658,0,0,0,92,74.658V437.342A50.658,50.658,0,0,0,142.658,488H368.342A50.658,50.658,0,0,0,419,437.342ZM403,437.342A34.658,34.658,0,0,1,368.342,472H142.658A34.658,34.658,0,0,1,108,437.342V74.658A34.658,34.658,0,0,1,142.658,40H368.342A34.658,34.658,0,0,1,403,74.658Z" />
    <path fill="#f00606"
        d="M332,68a8,8,0,0,0,0,16,32.036,32.036,0,0,1,32,32,8,8,0,0,0,16,0A48.054,48.054,0,0,0,332,68Z" />
    <path fill="#f00606"
        d="M180,428a32.036,32.036,0,0,1-32-32,8,8,0,0,0-16,0,48.054,48.054,0,0,0,48,48,8,8,0,0,0,0-16Z" />

</svg>