<svg xmlns="http://www.w3.org/2000/svg" viewBox="0 0 100 125" style="enable-background:new 0 0 100 100"
    xml:space="preserve">
    <path
        d="m90.356 49.624-.001-.004C84.618 27.393 56.816 9.675 50 7.533V7.48C43.184 9.622 15.382 27.34 9.645 49.567l-.001.004a20.66 20.66 0 0 0-.979 6.301c0 11.414 9.253 20.668 20.668 20.668 7.803 0 14.595-4.325 18.113-10.708a64.281 64.281 0 0 1-1.349 3.416c-4.782 11.176-11.745 18.767-16.71 23.272h41.226c-4.965-4.505-11.928-12.096-16.711-23.271a64.486 64.486 0 0 1-1.295-3.269c3.532 6.331 10.295 10.614 18.06 10.614 11.414 0 20.668-9.253 20.668-20.668 0-2.198-.344-4.315-.979-6.302z" />

</svg>